<svg xmlns="http://www.w3.org/2000/svg" width="43" height="65" viewBox="0 0 43 65"><g><g><path d="M19.576 32.306c-.001-5.21-4.225-9.434-9.436-9.433-5.21 0-9.434 4.225-9.433 9.436 0 5.21 4.224 9.433 9.435 9.433a9.434 9.434 0 0 0 9.434-9.435zm22.628 0a8.766 8.766 0 0 0-2.728-6.387 7.297 7.297 0 0 1-2.123-6.574 9.36 9.36 0 0 0-.068-3.446 8.402 8.402 0 0 0-1.482-3.31 8.838 8.838 0 0 0-5.95-3.555 7.284 7.284 0 0 1-5.574-4.057 8.837 8.837 0 0 0-12.15-3.93 7.957 7.957 0 0 0 1.42 14.617c9.187 2.69 14.454 12.319 11.764 21.506a17.334 17.334 0 0 1-11.764 11.765 7.9 7.9 0 0 0-5.613 7.599 7.955 7.955 0 0 0 4.21 7.03 8.837 8.837 0 0 0 12.128-3.941 7.286 7.286 0 0 1 5.59-4.057 8.842 8.842 0 0 0 7.49-10.328 7.296 7.296 0 0 1 2.143-6.561 8.77 8.77 0 0 0 2.707-6.371z"/></g></g></svg>