<svg xmlns="http://www.w3.org/2000/svg" width="28" height="28" viewBox="0 0 28 28"><g><g><path d="M25.578 14.055c0-2.044.17-6.435-.564-8.286a4.743 4.743 0 0 0-2.672-2.672c-1.843-.728-6.24-.565-8.284-.565-2.044 0-6.434-.169-8.284.565a4.743 4.743 0 0 0-2.672 2.672c-.728 1.844-.564 6.242-.564 8.286 0 2.045-.17 6.436.564 8.287a4.743 4.743 0 0 0 2.672 2.672c1.843.728 6.24.564 8.284.564 2.044 0 6.434.17 8.284-.564a4.743 4.743 0 0 0 2.672-2.672c.734-1.844.564-6.242.564-8.287zm2.434 5.796c-.113 2.252-.627 4.247-2.27 5.89-1.644 1.65-3.638 2.165-5.89 2.271-2.32.132-9.275.132-11.595 0-2.251-.113-4.24-.627-5.889-2.27-1.65-1.644-2.163-3.639-2.27-5.89-.132-2.321-.132-9.278 0-11.599.113-2.252.62-4.246 2.27-5.89C4.018.72 6.012.205 8.257.099c2.32-.132 9.275-.132 11.596 0 2.251.113 4.245.627 5.888 2.27 1.65 1.644 2.164 3.639 2.27 5.89.132 2.321.132 9.272 0 11.592zM23.239 6.553c0 .935-.752 1.681-1.68 1.681a1.681 1.681 0 1 1 1.68-1.681zm-4.496 7.502a4.69 4.69 0 0 0-4.685-4.685 4.69 4.69 0 0 0-4.685 4.685 4.694 4.694 0 0 0 4.685 4.686 4.694 4.694 0 0 0 4.685-4.686zm2.52 0a7.195 7.195 0 0 1-7.205 7.208 7.195 7.195 0 0 1-7.206-7.208 7.195 7.195 0 0 1 7.206-7.207 7.195 7.195 0 0 1 7.206 7.207z"/></g></g></svg>