<svg xmlns="http://www.w3.org/2000/svg" width="123" height="52" viewBox="0 0 123 52"><g><g><g><path fill="#fff" d="M104.167 26.004a7.59 7.59 0 1 0-15.182 0 7.59 7.59 0 0 0 15.182 0zm18.205 0a7.053 7.053 0 0 0-2.194-5.14 5.871 5.871 0 0 1-1.709-5.288 7.53 7.53 0 0 0-.054-2.773 6.76 6.76 0 0 0-1.192-2.663 7.11 7.11 0 0 0-4.788-2.86 5.86 5.86 0 0 1-4.485-3.264A7.11 7.11 0 0 0 98.175.853a6.402 6.402 0 0 0 1.142 11.76c7.392 2.165 11.63 9.912 9.465 17.304a13.946 13.946 0 0 1-9.465 9.466 6.356 6.356 0 0 0-4.516 6.113 6.4 6.4 0 0 0 3.388 5.656 7.11 7.11 0 0 0 9.624-2.908c.045-.087.09-.174.133-.262a5.862 5.862 0 0 1 4.498-3.264 7.114 7.114 0 0 0 6.025-8.31 5.87 5.87 0 0 1 1.725-5.279 7.057 7.057 0 0 0 2.178-5.125z"/></g><g><g><path fill="#fff" d="M23.118 14.142c.604-.639 1.296-.949 2.116-.949.821 0 1.518.311 2.13.952.618.651.92 1.4.92 2.29 0 .885-.294 1.62-.898 2.245-.599.618-1.3.918-2.142.918-.88 0-1.588-.296-2.166-.905-.588-.618-.874-1.353-.874-2.25 0-.895.298-1.648.914-2.301zm2.126 8.513c1.738 0 3.217-.623 4.4-1.85 1.176-1.218 1.773-2.704 1.773-4.42 0-1.714-.604-3.204-1.794-4.43-1.194-1.23-2.668-1.855-4.38-1.855-1.723 0-3.202.624-4.397 1.856-1.19 1.225-1.794 2.715-1.794 4.43 0 1.715.6 3.202 1.783 4.42 1.19 1.226 2.673 1.85 4.409 1.85z"/></g><g><path fill="#fff" d="M36.977 14.122c.597-.637 1.322-.947 2.218-.947.899 0 1.62.298 2.205.912.594.627.882 1.393.882 2.347 0 .938-.307 1.688-.941 2.29-.644.614-1.349.912-2.156.912-.853 0-1.568-.315-2.184-.962-.626-.657-.93-1.402-.93-2.28 0-.877.295-1.62.906-2.272zm2.084 8.533c1.133 0 2.294-.422 3.145-1.07v.726H45.3V6.456h-3.094v4.533c-.898-.59-1.923-.89-3.05-.89-1.726 0-3.212.62-4.413 1.845-1.198 1.218-1.806 2.706-1.806 4.423 0 1.714.6 3.204 1.78 4.429 1.19 1.233 2.652 1.86 4.344 1.86z"/></g><g><path fill="#fff" d="M49.829 21.95a4.534 4.534 0 0 0 2.455.703c1.05 0 2.075-.334 2.885-.99v.728h3.135V10.447h-3.218v6.746a2.129 2.129 0 0 1-2.134 2.122 2.126 2.126 0 0 1-2.122-2.122v-6.746h-3.194v6.115c0 1.537.178 2.658.536 3.445a4.26 4.26 0 0 0 1.657 1.943z"/></g><g><path fill="#fff" d="M0 45.54h3.19v-7.058h5.493V35.31H3.19v-2.454h5.492v-3.173H0z"/></g><g><path fill="#fff" d="M18.73 41.605c-.614.617-1.328.916-2.178.916-.856 0-1.571-.311-2.188-.952-.624-.652-.927-1.396-.927-2.277 0-.883.298-1.63.914-2.281.602-.638 1.32-.948 2.191-.948.879 0 1.599.3 2.202.918.609.624.904 1.382.904 2.32 0 .935-.299 1.688-.917 2.304zm.842-7.728c-.899-.592-1.924-.892-3.048-.892-1.726 0-3.212.62-4.415 1.844-1.198 1.22-1.806 2.705-1.806 4.416 0 1.707.603 3.196 1.792 4.429 1.195 1.238 2.656 1.867 4.343 1.867 1.128 0 2.182-.374 3.134-1.004v.661h3.096V33.253h-3.096z"/></g><g><path fill="#fff" d="M33.901 40.976c-.817 1.04-1.785 1.545-2.96 1.545-.969 0-1.741-.317-2.362-.97-.625-.653-.927-1.419-.927-2.336 0-.904.302-1.64.925-2.249.637-.62 1.409-.922 2.363-.922 1.217 0 2.175.493 2.928 1.509l.416.56 2.4-1.567-.38-.649a5.63 5.63 0 0 0-2.243-2.155 6.42 6.42 0 0 0-3.066-.757c-1.86 0-3.402.626-4.587 1.86-1.186 1.233-1.786 2.734-1.786 4.466 0 1.736.6 3.224 1.782 4.425 1.177 1.197 2.661 1.804 4.406 1.804a6.942 6.942 0 0 0 3.097-.704 5.959 5.959 0 0 0 2.374-2.093l.42-.64-2.365-1.681z"/></g><g><path fill="#fff" d="M54.935 41.565c-.598.619-1.296.92-2.14.92-.881 0-1.59-.295-2.168-.904-.587-.619-.872-1.356-.872-2.252 0-.896.298-1.649.913-2.3.603-.638 1.296-.947 2.117-.947s1.517.31 2.128.949c.618.652.92 1.4.92 2.288 0 .888-.293 1.623-.898 2.246zm-2.14-8.58c-1.723 0-3.202.625-4.399 1.857-1.19 1.224-1.794 2.716-1.794 4.43 0 1.715.6 3.203 1.782 4.42 1.19 1.227 2.673 1.848 4.41 1.848 1.739 0 3.219-.622 4.4-1.848 1.176-1.219 1.773-2.705 1.773-4.42 0-1.712-.605-3.203-1.794-4.429-1.197-1.233-2.67-1.858-4.378-1.858z"/></g><g><path fill="#fff" d="M14.895 15.293c0-.83.673-1.505 1.503-1.505h1.818v-3.1h-1.818a4.61 4.61 0 0 0-4.605 4.605v7.362h3.102z"/></g><g><path fill="#fff" d="M60.973 38.179v7.362h3.1v-7.362c0-.83.675-1.505 1.505-1.505h1.817v-3.1h-1.817a4.61 4.61 0 0 0-4.605 4.605z"/></g><g><path fill="#fff" d="M75.144 39.718l-2.903-6.465h-3.332l4.581 10.322-.628 1.4a2.142 2.142 0 0 1-1.925 1.208h-1.52v3.04h1.52c2.125 0 3.87-1.088 4.667-2.908l5.024-11.455.048-.179.623-1.428h-3.353z"/></g><g><path fill="#fff" d="M80.202 19.555c-.83 0-1.504-.675-1.504-1.505v-2.02l.017-.002v-2.734h2.06v-2.921h-2.06V6.462h-3.133v3.91h-1.794v2.922h1.794v3.146l.014-.002v1.612a4.611 4.611 0 0 0 4.606 4.605H81.3v-3.1z"/></g><g><path fill="#fff" d="M43.16 40.936v-2.02l.018-.002v-2.733h2.06v-2.923h-2.06v-3.79h-3.133v3.79H38.25v2.923h1.794v3.144h.015v1.61a4.61 4.61 0 0 0 4.605 4.606h1.097v-3.1h-1.097c-.83 0-1.504-.676-1.504-1.505z"/></g><g><path fill="#fff" d="M66.664 22.655a6.945 6.945 0 0 0 3.096-.704 5.956 5.956 0 0 0 2.373-2.093l.42-.64-2.365-1.681-.435.554c-.817 1.04-1.785 1.545-2.96 1.545-.969 0-1.74-.317-2.362-.97-.625-.655-.927-1.419-.927-2.337 0-.905.302-1.64.926-2.248.636-.621 1.409-.923 2.362-.923 1.217 0 2.176.494 2.93 1.51l.414.559 2.4-1.567-.38-.648a5.625 5.625 0 0 0-2.243-2.157 6.432 6.432 0 0 0-3.065-.755c-1.86 0-3.403.626-4.588 1.86-1.185 1.232-1.786 2.734-1.786 4.465 0 1.735.6 3.224 1.782 4.425 1.178 1.197 2.661 1.805 4.408 1.805z"/></g><g><path fill="#fff" d="M5.739 12.64H3.164V9.696H5.74c.81 0 1.466.667 1.466 1.478 0 .81-.655 1.466-1.466 1.466zm.071-6.032H.017v16.02h3.147v-6.937H5.81a4.53 4.53 0 0 0 3.219-1.335 4.523 4.523 0 0 0 1.335-3.206A4.543 4.543 0 0 0 5.81 6.608z"/></g></g></g></g></svg>