<svg xmlns="http://www.w3.org/2000/svg" width="32" height="26" viewBox="0 0 32 26"><g><g><path d="M28.837 6.506c.02.285.02.57.02.856 0 8.708-6.628 18.742-18.742 18.742-3.732 0-7.199-1.08-10.115-2.957.53.061 1.04.082 1.59.082 3.08 0 5.915-1.04 8.179-2.815a6.599 6.599 0 0 1-6.16-4.568c.409.061.816.102 1.245.102.591 0 1.183-.082 1.733-.224a6.588 6.588 0 0 1-5.282-6.465v-.082c.877.49 1.897.796 2.978.836a6.583 6.583 0 0 1-2.937-5.486c0-1.223.326-2.345.897-3.324a18.724 18.724 0 0 0 13.582 6.893c-.101-.49-.163-.999-.163-1.509A6.584 6.584 0 0 1 22.25 0c1.896 0 3.61.795 4.812 2.08A12.969 12.969 0 0 0 31.243.49a6.57 6.57 0 0 1-2.896 3.63c1.326-.143 2.61-.51 3.794-1.02a14.16 14.16 0 0 1-3.304 3.406z"/></g></g></svg>